<svg xmlns="http://www.w3.org/2000/svg" width="369" height="108">
    <path
        d="M192 1c3.667-.088 7.333-.14 11-.187l3.121-.077c7.795-.074 13.784.498 19.816 5.889 2.957 4.839 3.65 8.965 2.688 14.555-1.696 5.619-4.687 7.839-9.625 10.82l2.625 1.563C230.598 39.727 233.231 47.869 236 58v2h-14l.688-3.562c.555-4.559-.402-7.4-2.688-11.438-4.75-5.649-10.14-7.758-17-10q.21 5.406.438 10.813l.119 3.103.127 2.979.11 2.745c.127 2.51.127 2.51 1.206 5.36h-13l1-4a98 98 0 0 0 .13-5.072l.009-3.054-.006-3.28.003-3.385q0-3.54-.006-7.08c-.005-3.615 0-7.23.007-10.844q0-3.44-.004-6.879l.006-3.28-.01-3.054-.002-2.682c-.12-2.266-.492-4.217-1.127-6.39m11 8v18c8.147.21 8.147.21 14-4 1.989-2.594 2.01-3.762 1.875-7.062C217.863 12.54 217.044 11.7 214 10c-3.738-1.422-3.738-1.422-11-1M1 1h13l-1 2c-.153 1.739-.25 3.482-.316 5.227l-.116 2.815-.13 3.583L12 26h24l-.437-11.375-.131-3.583-.116-2.815-.11-2.889C35.141 2.978 35.141 2.978 34 1h13v59H34l1-3c.084-2.21.107-4.424.098-6.637l-.01-3.935-.026-4.115q-.008-2.076-.013-4.15Q35.03 33.08 35 28l-2.223 2.47c-2.847 2.593-3.518 3.15-7.203 3.018l-2.412-.049-2.474-.127-2.534-.068A340 340 0 0 1 12 33c.138 4.125.287 8.25.438 12.375l.119 3.563.127 3.398.11 3.142c.048 2.516.048 2.516 1.206 4.522H1zm76-1h2c6.651 13.7 13.246 27.42 19.625 41.25l1.503 3.257C102.488 49.644 104.807 54.79 107 60H93l-1-6-3-7-23-1c-3.264 8.21-3.264 8.21-3 14H49l1.547-3.242c5.635-11.84 11.148-23.732 16.633-35.64A3524 3524 0 0 1 77 0m0 21a2764 2764 0 0 0-3.5 7.875l-1.012 2.262-.957 2.168-.888 2c-.761 1.704-.761 1.704-.643 3.695h16a1681 1681 0 0 0-3.375-8.437l-.96-2.432-.938-2.315-.857-2.142C79.11 21.81 79.11 21.81 77 21m71-20h36v10l-4-1a107 107 0 0 0-4.766-.316l-2.695-.127-2.789-.12-2.836-.13Q163.457 9.149 160 9v17h22c-2.54 5.081-2.54 5.081-5 7-1.901.34-1.901.34-4.012.293l-2.069-.023-2.607-.083L160 33v18q5.156-.211 10.313-.437l2.958-.12 2.842-.127 2.619-.11c2.433-.133 2.433-.133 5.268-1.206v11h-36l1-3c.093-1.753.128-3.51.13-5.266l.009-3.256-.006-3.513.003-3.605q0-3.774-.006-7.548c-.005-3.862 0-7.725.007-11.587q0-3.661-.004-7.323l.006-3.52-.01-3.246-.002-2.866c.022-2.303.022-2.303-1.127-4.27M90 1h15l1 6a151 151 0 0 0 2.723 7.148l.802 1.993c.84 2.08 1.689 4.157 2.537 6.234q.862 2.127 1.721 4.254 2.1 5.19 4.217 10.371c3.174-4.762 5.095-10.125 7.278-15.397.844-2.033 1.699-4.061 2.554-6.09l1.613-3.884 1.485-3.56C132.22 4.912 132.22 4.912 132 1h14l-2 4c-1.717 3.727-3.398 7.47-5.08 11.214l-1.724 3.835c-3.227 7.167-6.395 14.35-9.395 21.615l-1.499 3.617a844 844 0 0 0-2.786 6.856l-1.274 3.097-1.098 2.726C120 60 120 60 117 61l-1.434-3.294-7.7-17.685A8287 8287 0 0 0 100 22l-1.144-2.614a3535 3535 0 0 0-3.293-7.488l-1-2.283C93.21 6.56 91.858 3.787 90 1M342.313-.187l2.244.04c1.814.036 3.629.09 5.443.147v13l-5-3c-4.155-.328-4.155-.328-8 1-.47 2.813-.47 2.813 0 6 2.414 2.445 2.414 2.445 5.625 4.438 6.102 4.248 10.856 7.996 13.813 14.937 1.117 7.2.095 12.531-3.598 18.8-4.095 4.06-8.81 6.035-14.559 6.216a185 185 0 0 1-4.781-.141l-2.492-.055A396 396 0 0 1 325 61V47l3.563 2c4.002 1.973 6.928 2.766 11.437 2 3.658-2.569 4.822-4.023 5.625-8.437-1.222-6.966-5.784-9.771-11.25-13.688l-2.852-1.945c-3.168-2.424-5.076-4.356-6.175-8.227-.633-5.445-.293-9.133 2.254-14.012 4.086-4.942 8.666-5.09 14.71-4.878M273 1h16l1 6c1.292 2.35 2.585 4.53 4.063 6.75C298 19.767 298 19.767 298 22h2l.773-2.121c1.822-4.275 4.328-8.093 6.766-12.04 1.766-2.9 1.766-2.9 1.461-6.839h16l-2.687 4.25-1.891 3.074c-1.771 2.79-3.726 5.359-5.781 7.946-9.878 12.95-11.272 23.34-9.96 39.434.198 2.32.198 2.32 1.319 4.296h-13l.492-5.352c1.12-17.739-1.747-28.313-12.684-42.294C278.002 8.7 275.519 4.856 273 1m-40 0h38v10l-14-2q.177 10.413.372 20.825.065 3.544.125 7.09.088 5.085.187 10.17l.05 3.218.06 2.972.048 2.624c.029 2.159.029 2.159 1.158 4.101h-13l1-51c-9.059.662-9.059.662-14 2zm73 80h5c2.313 3 2.313 3 4 6l1-6h4v16c-5-1-5-1-7.312-4.062L311 90l-1 7h-4zm-147 0c2.5 1.5 2.5 1.5 4 4 .791 4.021.622 6.964-1.5 10.5-3.536 2.122-6.479 2.291-10.5 1.5-2.5-1.5-2.5-1.5-4-4-.791-4.021-.622-6.964 1.5-10.5 3.536-2.122 6.479-2.291 10.5-1.5m-6.812 4.063c-1.504 2.015-1.504 2.015-.875 5.124L152 93c1.837.772 1.837.772 4 1 1.956-.955 1.956-.955 3-3-.233-3.15-.233-3.15-1-6-2.48-.94-3.467-1.312-5.812.063M207 81h5l2 4h2l2-4h5l-2.125 3.188c-1.78 3.03-1.78 3.03-1.25 6.5L221 93l1.125 2.313L223 97h-5l-2-4-1.687 2C212 97 212 97 209.25 97.25L207 97l.875-1.687L209 93l1.375-2.312c.74-3.18.32-3.759-1.25-6.5zm-102 0c6.836-.293 6.836-.293 9 0 2 3 2 3 1.625 6L115 90c0 3.106.54 4.353 2 7-2.375.188-2.375.188-5 0l-2-3-1 3h-4zm4 3 1 4 2-3zm-18-3h4q1.255 3.435 2.5 6.875l.723 1.973C100 94.773 100 94.773 100 97h-5v-3h-5l-1 3h-4c.626-3.626 1.613-6.844 3-10.25l1.063-2.64C90 82 90 82 91 81m1 7-1 3h2zM366 0c2 2 2 2 2.313 5.938-.08 2.546-.176 3.819-1.438 6.062-2.82 1.504-4.731 1.45-7.875 1-2.375-1.625-2.375-1.625-4-4-.45-3.144-.504-5.055 1-7.875C359.34-.753 362.21-.301 366 0m-8 3c-.681 1.892-.681 1.892-1 4l2 2V3zm7 1 1 4ZM125.848 80.902 132 81v4l-5-1c.88 2.248.88 2.248 3.5 3.313C133 89 133 89 134 91.5c0 2.5 0 2.5-1 4.313-3.076 1.826-5.504 1.562-9 1.187-1.937-1.5-1.937-1.5-3-3 2.354-1.43 3.48-2.087 6.25-1.625L129 93l-1.812-1.312L125 90l-1.812-1.375C122 87 122 87 122.25 84.375c1.054-3.338 1.054-3.338 3.598-3.473M344 81h11v3h-7v3h7v3h-7v4h7v3h-11zm-54 0h11v3h-7v3h7v3h-7v4h7v3h-11zm-45 0h11v3h-7v3h7v3h-7v4h7v3h-11zm-212.062.563C36 82 36 82 37.938 84c1.478 4.175.985 6.671.062 11-2 2-2 2-4.937 2.438C30 97 30 97 28.063 95c-1.479-4.175-.986-6.671-.063-11 2-2 2-2 4.938-2.437M32 85c-.934 4.531-.934 4.531 0 9h2c.934-4.531.934-4.531 0-9zm207-4v4h-6c-1.198 2.329-1.198 2.329-2 5l2 3c3.084.25 3.084.25 6 0v4c-7.145.606-7.145.606-11-2.125C226 92 226 92 225.375 89c1.64-7.872 6.688-8.588 13.625-8m-47 0h10v3h-6v3h6v3h-6v4h6v3h-10zM70 81h10v3h-6v3h6v3h-6v4h6v3H70zm268 0 2 2-1 2h-8v8h8l1 3c-3.208 1.604-6.52 1.475-10 1-2.5-1.5-2.5-1.5-4-4-.791-4.021-.622-6.964 1.5-10.5 3.714-2.229 6.2-1.916 10.5-1.5m-318.187.563L22 82v9h2v3h-2v3h-4v-3h-7c.486-5.346 3.134-11.554 8.813-12.437M17 88l-1 3h2zm34-7c2.375-.187 2.375-.187 5 0l2 3 2-3c2.625-.187 2.625-.187 5 0l-.84 1.469C61.488 87.414 60.4 91.395 60 97h-4l-.25-3.062C55.162 89.622 53.244 86.69 51 83zm118 0h9v3h-5v4h5v3h-5v6h-4zm92 0h4v13h7v3h-11zm15 0h4v13h6v3h-10zM2 82h5v15H3V87H1z"
        fill="#FFF" />
</svg>