<svg xmlns="http://www.w3.org/2000/svg" width="14" height="16" viewBox="0 0 14 16">
  <path id="bag-icon" d="M30.484,15.5,29.577,4.18a.428.428,0,0,0-.425-.4H26.714V3.24A3.216,3.216,0,0,0,23.517,0h-.056a3.248,3.248,0,0,0-3.234,3.24v.545h-2.4a.428.428,0,0,0-.425.4l-.91,11.355a.432.432,0,0,0,.112.326.426.426,0,0,0,.314.138H30.063a.428.428,0,0,0,.427-.43A.435.435,0,0,0,30.484,15.5ZM21.08,3.24A2.39,2.39,0,0,1,23.461.86h.056A2.358,2.358,0,0,1,25.86,3.24v.545H21.08Z" transform="translate(-16.49)" fill="#c8cdd1"/>
</svg>
