<svg id="Layer_1" data-name="Layer 1" xmlns="http://www.w3.org/2000/svg" viewBox="0 0 1493.97 254.96"><path d="M191.16,5.46H141c5.15,4.11,6.53,7.89,6.53,13.72V235.75c0,5.82-1.38,9.6-6.53,13.72h50.16c-5.15-4.12-6.52-7.9-6.52-13.72V19.18C184.64,13.35,186,9.57,191.16,5.46ZM1490.67,152.32h0c-16.11-55-85.68-58.67-85.68-94.42,0-11.65,12.72-23,24.74-23,16.49,0,28.51,4.78,37.79,18.49V.34c-2.07,3.08-6.18,4.45-9.6,4.45-4.49,0-8.94-1.37-13.77-2.4S1434.2,0,1428.37,0c-34,0-61.87,23.29-61.87,60,0,52.76,58.45,62.08,80.62,92.35h0a41.87,41.87,0,0,1,8.37,25.49c0,25-16.49,42.17-42.25,42.17-21,0-35.06-5.83-49.15-20.9V255c2.06-3.08,6.55-6.16,9.29-6.16,13,0,26.45,6.16,43.28,6.16,46.07,0,77.33-36,77.33-78.14A87.84,87.84,0,0,0,1490.67,152.32ZM118.05,137.43l24.65-26H43.64V19.1c0-5.83,1.37-9.6,6.52-13.7H0c5.16,4.1,6.53,7.87,6.53,13.7V235.75c0,5.83-1.37,9.6-6.53,13.72H50.16c-5.15-4.12-6.52-7.89-6.52-13.72V137.43ZM434,237.82l-39.83-85.5L324.15,2h-1.71l-70,150.3-39.82,85.5c-2.06,4.11-4.46,8.57-8.24,11.65h51.76c-3.09-1.38-4.13-4.81-4.13-7.89,0-1.71,1-5.13,2.75-9.24l18.8-43h97.32l18.92,43c1.72,4.11,2.75,7.53,2.75,9.24,0,3.08-1,6.51-4.13,7.89h53.87C438.45,246.39,436.05,241.93,434,237.82ZM284.66,164.08l5.2-11.76,32.37-73.09,32.22,73.09,5.18,11.76Zm696.75,76.47c-5.24-31.76-16.16-66.07-42.74-88.23h0A97.93,97.93,0,0,0,901,133v-.67c29.06-4.12,53.77-26,54.18-59.85.65-53.46-43.47-67-87.46-67H804.9c5.15,4.11,6.71,7.29,6.71,13.11V235.74c0,5.84-1.33,9.61-6.47,13.73h50.51c-5.17-4.12-6.92-7.89-6.92-13.72v-90a107.7,107.7,0,0,1,32.42,6.61h.07a94,94,0,0,1,20.17,10.41c25.16,15.89,37.77,41.41,37.77,67.55,0,7.19-.7,15.76-7.56,19.19h56.32A11.39,11.39,0,0,1,981.41,240.55ZM869.05,115.14H848.73V37h24.94C903.47,37,918,53.33,918,73,918,97.34,898.15,115.14,869.05,115.14ZM1304.16,13c0,2.06-1.71,6.52-6.87,15.77l-43,72.41h-.7l-42.93-72.41c-5.15-9.25-6.88-13.71-6.88-15.77,0-3.09,2.76-5.5,4.82-7.55h-62.2c9.27,5.83,12.37,11.32,18.22,20.23l70.78,111.38v98.68c0,5.83-1.38,9.6-6.54,13.72H1279c-5.17-4.12-6.53-7.89-6.53-13.72V137.07L1343.3,25.69c5.85-8.91,8.94-14.4,18.2-20.23h-62.17C1301.41,7.51,1304.16,9.92,1304.16,13ZM979.79,43.75c4.11-2.75,8.59-6.17,13.75-6.17h43.85V235.75c0,5.82-1.36,9.6-6.52,13.72h50.52c-5.16-4.12-6.52-7.9-6.52-13.72V37.63h44c5.15,0,9.63,3.42,13.74,6.17V5.47H979.79ZM627.71,19.13V235.84c0,5.82-1.37,9.49-6.53,13.6H765.35V208.18c-5.15,8.57-14.08,9.26-26.46,9.26H664.83v-80h70.35l25.36-26.63h-95.7V36.56H738.9c12.38,0,21.31.69,26.46,9.26V5.46H621.18C626.3,9.57,627.71,13.31,627.71,19.13ZM556.9,13.22a13.85,13.85,0,0,1-1.16,5.92L501.55,152.32,493.9,171.1h-.6l-7.64-18.78L431.43,19.14a13.85,13.85,0,0,1-1.13-5.92c.12-3.62,2.54-5.73,4.59-7.78H375.75A64.32,64.32,0,0,1,393.3,28.75l54,123.57,44.88,102.59h.64L537.7,152.32,591.81,28.75A64.45,64.45,0,0,1,609.3,5.44h-57C554.37,7.49,556.78,9.63,556.9,13.22Z" transform="translate(0 0)" style="fill:#fff;opacity:0.1"/></svg>