<svg xmlns="http://www.w3.org/2000/svg" width="40" height="40" viewBox="0 0 40 40">
  <g id="pinterest-icon" transform="translate(-344 -6151)">
    <g id="Ellipse_30" data-name="Ellipse 30" transform="translate(344 6151)" fill="none" stroke="rgba(255,255,255,0.5)" stroke-width="1">
      <circle cx="20" cy="20" r="20" stroke="none"/>
      <circle cx="20" cy="20" r="19.5" fill="none"/>
    </g>
    <g id="pinterest-icon-2" data-name="pinterest-icon" transform="translate(353 6160)">
      <g id="pinterest" transform="translate(2 2)">
        <path id="Shape" d="M11.5,2A9.5,9.5,0,0,0,8.038,20.346a9.121,9.121,0,0,1,.033-2.725C8.243,16.88,9.184,12.9,9.184,12.9a3.434,3.434,0,0,1-.284-1.41c0-1.322.765-2.307,1.719-2.307a1.193,1.193,0,0,1,1.2,1.338,19.142,19.142,0,0,1-.786,3.163A1.379,1.379,0,0,0,12.442,15.4c1.689,0,2.986-1.781,2.986-4.35A3.75,3.75,0,0,0,11.46,7.184a4.113,4.113,0,0,0-4.29,4.123,3.692,3.692,0,0,0,.707,2.167.285.285,0,0,1,.066.273c-.072.3-.232.945-.264,1.078-.041.173-.137.21-.317.126a4.258,4.258,0,0,1-1.928-3.68c0-3,2.177-5.748,6.277-5.748a5.575,5.575,0,0,1,5.857,5.487c0,3.274-2.064,5.908-4.93,5.908a2.542,2.542,0,0,1-2.177-1.091s-.476,1.814-.592,2.259a10.615,10.615,0,0,1-1.181,2.491A9.5,9.5,0,1,0,11.5,2" transform="translate(-2 -2)" fill="#fff"/>
      </g>
    </g>
  </g>
</svg>
