<svg xmlns="http://www.w3.org/2000/svg" width="10.923" height="15.292" viewBox="0 0 10.923 15.292">
  <g id="location-icon" transform="translate(-96 -32)">
    <circle id="Ellipse_7" data-name="Ellipse 7" cx="1.5" cy="1.5" r="1.5" transform="translate(99.923 36)" fill="#c8cdd1"/>
    <path id="Path_4" data-name="Path 4" d="M101.461,32A5.353,5.353,0,0,0,96,37.223a12.174,12.174,0,0,0,1.858,5.42,40.046,40.046,0,0,0,2.731,4.206,1.084,1.084,0,0,0,1.748,0,40.215,40.215,0,0,0,2.731-4.206,12.187,12.187,0,0,0,1.856-5.42A5.353,5.353,0,0,0,101.461,32Zm0,7.646a2.185,2.185,0,1,1,2.185-2.185A2.185,2.185,0,0,1,101.461,39.646Z" fill="#DDAB6D"/>
  </g>
</svg>
