<svg xmlns="http://www.w3.org/2000/svg" width="40" height="40" viewBox="0 0 40 40">
  <g id="youtube-icon" transform="translate(-284 -6151)">
    <g id="Ellipse_29" data-name="Ellipse 29" transform="translate(284 6151)" fill="none" stroke="rgba(255,255,255,0.5)" stroke-width="1">
      <circle cx="20" cy="20" r="20" stroke="none"/>
      <circle cx="20" cy="20" r="19.5" fill="none"/>
    </g>
    <path id="youtube-icon-2" data-name="youtube-icon" d="M18.733,8.653A6.852,6.852,0,0,0,18,5.324a2.354,2.354,0,0,0-1.387-.806,63.171,63.171,0,0,0-6.747-.25,63.238,63.238,0,0,0-6.723.242,2.314,2.314,0,0,0-1.177.6,4.159,4.159,0,0,0-.887,2.781,38.927,38.927,0,0,0,0,5.224,7.7,7.7,0,0,0,.242,1.612,2.531,2.531,0,0,0,.572,1.1,2.306,2.306,0,0,0,1.2.629,36.421,36.421,0,0,0,5.24.266c2.821.04,5.3,0,8.223-.226a2.322,2.322,0,0,0,1.233-.629,2.007,2.007,0,0,0,.492-.806,8.529,8.529,0,0,0,.419-2.741C18.733,11.862,18.733,9.137,18.733,8.653ZM8.044,12.8V7.807l4.772,2.507C11.478,11.055,9.713,11.894,8.044,12.8Z" transform="translate(294.139 6159.723)" fill="#fff"/>
  </g>
</svg>
